<svg xmlns="http://www.w3.org/2000/svg" xmlns:xlink="http://www.w3.org/1999/xlink" viewBox="0 0 200 200">
<g fill="none" fill-rule="evenodd">
<path
d="M81.86 148.73a1.017 1.017 0 00-.217-.028h-.247l-40.192.007 9.567-13.71-4.792.97 3.245-3.548-5.52 1.356 3.605-4.319c.048-.057 1.885-2.251 4.818-4.434 2.9-2.158 7.109-4.486 11.859-4.436 1.842.021 15.64 0 21.106 0h.82l.643-3.152c.024-.118 1.297-6.309 6.549-11.812a89.812 89.812 0 00-5.598.863c-6.834 1.277-15.923 3.778-24.992 8.661l-5.412 2.914s3.774-7.025 5.374-9.523a102.83 102.83 0 016.939-9.552c5.06-6.178 12.078-13.21 20.621-17.799a92.138 92.138 0 00-6.117-1.085 105.774 105.774 0 00-27.97-.25l-4.848.605 3.234-3.662c.065-.073 2.879-3.248 7.886-6.7 3.182-2.193 7.275-4.516 12.13-6.22a245.925 245.925 0 00-13.306-1.513c-12.97-1.117-29.39-1.454-43.51 1.55l-1.947.377-6.573 1.627-.15-.332 7.245-5.004c.082-.055 21.624-14.93 51.21-19.558 29.662-4.642 67.373 1.043 99.44 41.945.681.456 2.64 1.81 5.166 3.943 3.12 2.639 7.138 6.494 10.668 11.342 7.07 9.71 12.318 23.63 4.128 39.577l-1.97 3.839-2.454-7.054-4.288 14.099-9.902.003-.94 1.271c-.007.641-.102 1.625-.397 3.16-.743 3.861-5.013 7.199-10.066 7.187-6.72-.016-34.428 0-43.976 0-4.65 0-7.063-1.999-7.74-4.873-.336-1.432-.194-2.918.07-4.14-2.007-.152-6.057.708-6.057.708l2.04-1.272c-1.958-.041-6.048.739-6.048.739l4.278-2.77-17.412.003zm7.01-28.149l1.007-.005h10.015c.324-1.871.968-4.777 2.167-7.539-.332.118-.675.244-1.03.378-3.308 1.242-7.6 3.17-11.622 5.917l-1.836 1.253 1.3-.004zm33.78.007h22.022a49.148 49.148 0 00-18.662-1.784c-2.912.28-5.693.93-7.745 1.511-.306.085-.602.174-.889.261h3.272l2.001.012zm-7.84-4.608c-2.832 1.288-6.113 2.933-8.529 4.596h7.619l.172-1.73c.01-.083.132-1.266.738-2.866z"
fill="#FFF" />
<path
d="M107.572 149.444c-1.242-.123-3.136.065-3.136.065 1.64-1.084 2.093-1.195 2.19-1.203-3.044.044-4.717.672-4.717.672a19.438 19.438 0 012.85-2.1l-20.319.003.526-1.178s-1.832 1.151-3.57 1.151l-36.65.007 10.18-14.59-3.755.76 3.53-3.855-5.974 1.467s6.929-8.297 15.239-8.207c1.845.02 15.655 0 21.126 0 7.136 0 7.48 1.622 7.494 1.848-.019-1.705-1.88-1.86-1.88-1.86h29.937l2.001.012h35.905l24.657 2.848-6.565 21.584-9.466.002-1.893 2.562s.219.543-.324 3.367-3.903 5.7-8.248 5.689c-6.72-.016-34.433 0-43.981 0-8.244 0-6.032-6.917-5.157-9.044"
fill="#002B5C" />
<path
d="M119.58 145.729l-1.425 4.14c-.442-.594-1.082-1.102-2.017-1.104-1.234-.003-2.593.932-3.034 2.115-.448 1.196.278 2.12 1.512 2.123.95.003 1.848-.385 2.743-1.002l-1.638 4.064c-.776.301-2.36.427-3.1.426-3.24-.008-4.871-2.42-3.715-5.52.362-.965.942-1.872 1.67-2.666-1.19.043-2.748.188-2.748.188 2.066-1.228 3.228-1.414 3.673-1.434-3.027-.07-4.642.424-4.642.424 4.088-1.974 7.662-2.78 11.165-2.137.554.074 1.08.203 1.555.383m-8.078 1.33l.21.005s-.068-.01-.21-.005"
fill="#FFD200" />
<path
d="M17.157 62.104s85.082-58.763 148.334 22.24c0 0 35.095 22.444 19.588 52.642l-3.264-9.386s-14.283-.204-32.443-7.346c-18.158-7.14-33.461-1.224-33.461-1.224s.408-4.08 3.877-7.14c0 0-16.324 6.12-18.363 11.017 0 0 .814-8.57 4.692-13.057 0 0-9.386 2.242-17.752 7.956 0 0 1.837-8.977 10.407-14.486 0 0-18.567.203-37.134 10.201 0 0 13.26-24.687 33.869-32.85 0 0-16.934-5.508-39.787-2.652 0 0 10.815-12.242 27.954-14.487 0 0-37.747-7.55-66.517-1.428"
fill="#002B5C" />
<path
d="M63.625 125.015h.655l1.286.007 6.532.005.797 11.932 3.193-10.38c.06-.336.079-.701-.045-.973-.26-.575-.881-.609-.881-.609l3.373.033 5.296.003c5.955.001 9.964 2.254 9.117 7.761l1.9-6.167c.066-.343.09-.73-.037-1.01-.26-.578-.882-.61-.882-.61l3.376.03 11.237.004-1.574 5.116-6.017-.004-.55 1.788 5.494.003-1.494 4.868-5.496-.004-.566 1.837 6.227.004-1.575 5.114-13.412-.006 2.269-7.377c-2.164 4.564-6.864 7.375-12.004 7.373l-6.497-.001h-2.543l-5.01-.004.066-2.334-5.391-.002-1.29 2.33h-7.556l8.565-12.738.03-.065c.31-.632.479-1.153.534-1.582-1.902-.116-4.617.882-4.617.882a19.553 19.553 0 014.11-2.299c-1.535-1.098-5.902.507-5.902.507 2.888-2.09 6.096-3.432 9.282-3.432zm21.755 9.627c.81-2.632-.434-3.75-3.04-3.751h-.442l-2.23 7.249.442.001c2.374.002 4.517-1.042 5.27-3.499zm-22.269 2.324l2.865.002.183-3.302c.035-.795.158-1.615.273-2.41l-3.32 5.71zm58.81-5.723l.147-.304c.308-.632.477-1.153.53-1.582-1.9-.116-4.614.882-4.614.882a19.52 19.52 0 014.11-2.299c-1.536-1.098-5.903.507-5.903.507 3.346-2.463 6.61-3.432 11.144-3.432 3.187 0 1.67.007 1.67.007h4.989l1.049 16.025 4.917-15.993 7.026.003h3.204l5.258.005c5.556 0 9.421 1.965 9.222 6.708l1.32-4.294.22-.675c.09-.379.14-.833-.006-1.156-.262-.575-.882-.608-.882-.608l3.372.03 11.252.004-1.572 5.115-6.016-.002-.551 1.786 5.495.004-1.494 4.868h-5.497l-.565 1.833 6.224.004-1.571 5.114-13.416-.005 1.959-6.395c-2.34 3.984-6.722 6.395-11.484 6.39l-9.038-.006 5.356-17.414c.027-.261.014-.52-.08-.725a1.005 1.005 0 00-.61-.548l-5.747 18.691-6.114-.004-1.022-.001-6.531-.003.066-2.332-5.392-.004-1.292 2.333h-7.551l-10.123-.007 5.76-18.722 7.137.002-3.91 12.713 5.174.003 4.38-6.516zm35.076 3.43c.81-2.632-.437-3.753-3.04-3.75l-.403-.008-2.27 7.255.442.002c2.372.001 4.515-1.041 5.271-3.5zm-32.006 2.321h2.863l.18-3.303c.038-.792.16-1.613.272-2.408l-3.315 5.711z"
fill="#E31937" />
<path
d="M40.666 55.23s73.898-33.606 121.237 32.524c0 0 28.908 20.417 22.946 38.665 0 0-.722-4.335-2.167-8.131-1.446-3.794-23.127-21.861-44.99-25.656l3.433 10.478.723-6.323s10.84 14.456 36.678 24.575c0 0-1.988 3.61-19.151-2.351-17.166-5.962-23.85-8.492-31.8-7.227 0 0 5.78-4.698 14.453-3.434 0 0-10.117-5.058-29.993 1.808 0 0 5.24-5.603 11.564-6.325 0 0-8.853-2.348-26.199 5.962 0 0 9.758-9.576 18.79-10.84 0 0-20.596-3.613-42.097 4.518 0 0 7.95-14.636 36.858-24.934 0 0-19.332-6.144-43.905-5.06 0 0 15.718-9.395 33.787-8.31 0 0-20.236-12.647-60.167-9.938"
fill="#004B8D" />
<path
d="M124.36 58.83c.555.196-12.655-8.562-30.149-9.864-17.492-1.302-37.592 2.048-37.592 2.048s34.987-3.722 67.74 7.816"
fill="#004B8D" />
<path
d="M183.352 113.728s-7.071-12.097-15.072-18.61l-8.004-6.512.93 4.651s13.4 10.05 22.146 20.47M124.36 58.83c.555.196-12.655-8.562-30.149-9.864-17.492-1.302-37.592 2.048-37.592 2.048s34.987-3.722 67.74 7.816M85.574 69.146c1.256-.472 14.356-6.262 29.572.983 0 0-13.368-2.784-29.572-.983"
fill="#33619E" />
<path d="M140.774 74.252c-.168.057-6.186 2.528-3.794 7.311 2.094 4.188 9.941 3.102 10.312-2.323" fill="#FFD200" />
<path
d="M142.73 75.48s-9.654-1.736-15.565-1.79c0 0 7.347 2.06 9.294 5.128 0 0 .522-4.694 6.27-3.339M148.424 79.54s1.164 3.534-1.22 5.27c-2.387 1.736-9.951 3.353-11.307-4.4 0 0 2.533 5.31 8.173 3.196 5.64-2.114.162-8.003.162-8.003l4.192 3.938z"
fill="#002B5C" />
<path
d="M144.871 77.086l-2.79-3.348-2.278 3.254s-1.14 1.463-.165 2.766c.978 1.302 1.951 2.115 4.07 1.139 2.113-.978 1.163-3.81 1.163-3.81"
fill="#002B5C" />
<path
d="M141.618 74.809c-.123.04-4.393 1.79-2.724 5.246 1.666 3.458 6.833 2.199 7.401-1.666.568-3.864-.849-1.082-.849-1.082s-1.473 4.855-4.417 3.04c-2.615-1.613-.061-4.969 2.094-4.4 2.156.572-1.505-1.138-1.505-1.138"
fill="#E31937" />
<path d="M152.887 86.802s1.165-14.382-26.372-18.867c0 0 20.422 9.479 26.372 18.867" fill="#002B5C" />
<path
d="M124.444 149.375c-.302.807-1.017.908-1.694.906h-.287l.689-1.846.316.001c.707.001 1.289.103.976.94m4.085-.12c1.023-2.739-.759-3.783-3.32-3.788l-4.22-.01-1.368-.015s.24-.007.335.238c.062.163.01.42-.043.605l-3.747 10.039 4.037.01 1.302-3.488h.076l.506 3.491 4.759.012-1.151-3.536c-.109-.32-.3-.492-.45-.652l.03-.086c1.72-.486 2.642-1.178 3.254-2.82"
fill="#FFD200" />
<path
d="M134.585 148.894c1.31.004 1.764.97 1.333 2.125-.463 1.24-1.654 2.088-2.904 2.086-1.25-.003-1.807-.857-1.345-2.096.432-1.153 1.606-2.118 2.916-2.115m1.335-3.573c-3.45-.008-7.112 2.204-8.386 5.62-1.303 3.49.734 5.585 4.199 5.594 3.465.007 7.062-2.077 8.364-5.565 1.276-3.418-.73-5.642-4.177-5.65"
fill="#FFD200" />
<path
d="M140.09 145.501l-.08 10.88 3.51.006 2.68-4.272c.337-.533.627-1.07.881-1.634h.136l-.91 5.914 3.6.007L158 145.511l-4.29-.022-2.882 4.611c-.381.619-.704 1.282-1.001 1.917h-.092l.88-6.514-3.15-.007-2.902 4.503c-.422.65-.77 1.34-1.094 2.003l-.09-.001.99-6.505-4.277.005z"
fill="#FFD200" />
<path
d="M152.49 155.586c1.048.624 2.565 1.002 3.997 1.004 2.455.007 5.405-1.27 6.374-3.866.688-1.845-.245-2.74-1.851-3.12l-.86-.204c-.289-.073-.779-.133-.629-.535.168-.447.743-.577 1.105-.575.887.002 1.552.365 2.088.826l2.154-2.779c-.873-.651-1.95-.954-3.246-.958-2.47-.007-5.464 1.429-6.428 4.009-.635 1.7.383 2.613 1.893 2.89l.773.147c.351.071.877.118.694.607-.183.49-.89.649-1.297.647-.95-.002-1.67-.451-2.203-1.001l-.153-.158-2.412 3.066zM127.431 130.129s-3.489 6.046-3.826 6.606c-.242.402-.544 1.63 1.031 1.63h4.007l-.803-1.085h-3.454l3.702-6.281-.657-.87zM152.474 130.118l.745.66-2.336 7.642s.96.298 4.012-.512c0 0-5.96 3.096-4.942-.14.974-3.085 1.178-3.746 2.52-7.65M171.278 128.79s-.874 2.903-.992 3.311c-.08.28-.346 1.076.862 1.076h4.484l-.742 2.573.703.848 1.304-4.314h-5.51l.736-2.416-.845-1.078zM169.178 135.561s-.837 2.84-.955 3.246c-.082.281-.346 1.076.862 1.076h5.198l-.742 2.575.652.846 1.303-4.312h-6.173l.702-2.353-.847-1.078zM127.463 125.396l6.076-.003s1.098 16.439 1.11 16.546c.032.339.32.651.681.687 0 0-1.787.508-1.932-1.447-.145-1.957-.87-14.771-.87-14.771l-5.701.006.636-1.018zM109.343 125.397l.492 1.01h4.363s-3.447 10.846-3.608 11.334c-.165.488.234 1.521 1.265 1.521h5.866l-.67-1.049h-5.268l3.95-12.816h-6.39z"
fill="#FFD200" />
<path
d="M120.188 145.584l.331.482s3.81.008 5.473.007c1.439 0 2.888 1.478 2.03 3.625 0 0 .991-1.453.48-2.66-.483-1.141-1.567-1.37-2.474-1.408-1.08-.045-5.84-.046-5.84-.046M118.094 149.396l-.447-.835.857-2.382s-1.485-.422-4.038-.21c-2.933.24-5.934 1.018-5.934 1.018s5.457-2.778 10.77-1.125l-1.208 3.534zM112.958 149.528s-1.188 1.675-.744 2.943c.446 1.266 2.471 1.583 3.899.92l-1.105 2.622.604-.149 1.34-3.414s-1.174.877-2.51.74c-1.337-.138-2.272-1.23-1.348-2.772l-.136-.89z"
fill="#FFE694" />
<path d="M110.695 147.504c-.217 0-1.48.578-1.48.578s1.72-.265 2.66-.265" fill="#FFE694" />
<path d="M122.93 128.091c-.372 0-2.288 1.05-2.288 1.05s2.658-.618 4.265-.618" fill="#FFD200" />
<path fill="#FFE694"
d="M121.381 152.595l-.275-.751-1.384 3.747.376.526zM124.56 151.952l1.332 3.776.75.475s-1.092-3.3-1.186-3.517c-.177-.408-.897-.734-.897-.734M122.67 147.692s-.88 2.234-.88 2.608c0 .375.031.603.925.6.751-.002 1.207-.514 1.207-.514s-1.232.15-1.657 0l.74-2.173-.335-.52zM132.155 148.926s-1.81 1.34-1.52 3.332c.289 1.992 2.39 1.629 4.273.904 0 0-1.522.109-2.03.073-.505-.036-1.964-.248-1.483-2.173.109-.434.67-1.085.67-1.085l.09-1.05zM130.868 147.065s1.485-1.23 3.403-1.483c1.92-.255 4.816-.292 6.01 2.135l-.651.146s-1.195-1.92-4.382-1.92c-3.186 0-4.38 1.122-4.38 1.122M140.194 145.592l.196.474 3.192.007s-.906 5.977-.914 6.314c-.024.855.863-.259.863-.259s-.398.313-.275-.367c.048-.266.956-6.177.956-6.177l-4.018.008zM147.526 145.592l.17.474 2.13.007s-.79 5.977-.8 6.314c-.022.855.864-.259.864-.259s-.398.313-.276-.367c.048-.266.843-6.177.843-6.177l-2.931.008zM143.465 156.224l-.303-.564 3.596-5.799.272.489zM149.836 156.187l-.236-.37 5.657-7.632-.068.839zM153.777 145.592l4.042-.005s-1.43 1.662-1.13 1.694c.303.035.694-.151.694-.151s-1.47.869-1.203.096c.269-.77.727-1.172.727-1.172l-2.838.007-.292-.47zM157.776 146.813s.75-.816 2.667-1.187c1.685-.327 3.551.257 4.142.779l-1.833 2.399-.19-.643 1.142-1.518s-2.237-1.34-5.928.17M159.06 148.597s-.758.716.054 1.075c.772.34 1.42.505 2.261.735 1.322.364 1.466 2.23-.646 4.478 0 0 1.523-.63 2.063-2.58.44-1.585-.732-2.253-1.765-2.498-.698-.165-1.913-.367-1.698-.842l-.269-.368z" />
<path fill="#FFD200" d="M140.156 125.396h6.514l-5.58 17.894-.935-.804 4.919-16.082-4.544-.008z" />
<path d="M142.749 77.276s-1.682.677-1.74 1.7c0 0-.883-1.391.6-2.512l1.14.812z" fill="#FFF" />
<path
d="M118.889 127.27s2.955-1.874 8.574-1.874l.762 1.024s-6.24-.127-9.336.85M65.412 130.129s-3.49 6.046-3.828 6.606c-.24.402-.542 1.63 1.033 1.63h4.006l-.802-1.085h-3.455l3.702-6.281-.656-.87zM65.443 125.396l6.076-.003s1.099 16.439 1.108 16.546c.035.339.32.651.682.687 0 0-1.785.508-1.93-1.447-.145-1.957-.87-14.771-.87-14.771l-5.702.006.636-1.018zM60.91 128.091c-.371 0-2.288 1.05-2.288 1.05s2.659-.618 4.266-.618"
fill="#FFD200" />
<path
d="M56.87 127.27s2.955-1.874 8.573-1.874l.763 1.024s-6.241-.127-9.336.85M166.514 125.39c.158.17.308.477.231 1.007h11.441l-.802 2.502.77 1.044 1.402-4.554h-13.042zM99.767 128.79s-.874 2.903-.992 3.311c-.08.28-.346 1.076.862 1.076h4.484l-.742 2.573.703.848 1.304-4.314h-5.51l.736-2.416-.845-1.078zM97.667 135.561s-.838 2.84-.955 3.246c-.082.281-.346 1.076.862 1.076h5.198l-.742 2.575.652.846 1.303-4.312h-6.173l.7-2.353-.845-1.078zM95.002 125.39c.16.17.309.477.233 1.007h11.44l-.801 2.502.768 1.044 1.402-4.554H95.002zM163.755 128.917c-1.408-2.835-4.777-3.521-7.718-3.521h-8.17c.162.164.325.47.252 1.008h8.578c3.801 0 7.718 2.354 6.946 8.42 0 0 1.216-3.685.112-5.907M80.875 130.061l.746.66-2.336 7.644s.96.296 4.012-.513c0 0-5.96 3.095-4.942-.14.973-3.086 1.177-3.747 2.52-7.65M92.157 128.86c-1.407-2.835-4.777-3.52-7.718-3.52h-8.172c.164.165.327.47.254 1.008h8.576c3.803 0 7.72 2.353 6.948 8.42 0 0 1.215-3.686.112-5.908"
fill="#FFD200" />
</g>
</svg>