<svg xmlns="http://www.w3.org/2000/svg" xmlns:xlink="http://www.w3.org/1999/xlink" viewBox="0 0 200 200">
<g fill="none" fill-rule="evenodd">
<path
d="M86.982 176c-14.87-8.496-27.187-22.08-34.68-38.26-8.204-17.714-10.57-38.037-6.845-58.774l.259-1.433 1.316-.616c10.612-4.964 23.061-9.176 36.004-12.182 14.073-3.27 28.399-4.998 41.427-4.998 10.072 0 19.48 1.007 27.957 2.996l2.45.574-.301 2.496c-3.506 29.121-9.806 51.71-19.252 69.056-10.792 19.817-25.808 33.33-45.903 41.311l-1.257.498-1.175-.669z"
fill="#FFF" />
<path
d="M67.096 146.316c4.358 7.55 10.281 14.748 16.938 20.731a92.992 92.992 0 007.574 6.053c16.426-7.221 28.748-18.311 37.98-32.717a313.277 313.277 0 00-35.766 1.864 317.587 317.587 0 00-26.726 4.069m-9.882-27.076c.258 1.619.668 3.252 1.005 4.824 26.555-5.741 55.14-8.604 83.022-7.718.598-1.647 1.17-3.33 1.725-5.034-28.658-1.152-58.55 1.597-85.752 7.928m-9.336-39.894C40.092 122.671 60 158.178 88.45 174.427c.775-.31 1.54-.629 2.297-.952-26.907-15.37-45.282-48.96-37.918-89.937 24.256-11.347 61.482-19.654 92.474-14.495-23.047-2.368-59.42 3.653-83.584 13.122-1.45.538-2.963 1.115-4.511 1.73 0 0-1.045 4.396-1.478 11.473.565-.158 1.13-.313 1.695-.468v.001c29.494-8.026 60.579-11.939 92.337-11.231a315.077 315.077 0 002.75-18.464c-33.937-7.959-77.24 1.324-104.635 14.14"
fill="#0039A6" />
<path
d="M84.255 88.824h-.002a321.101 321.101 0 00-28.522 6.543 98.573 98.573 0 001.483 23.873c12.656-2.942 25.584-5.078 38.717-6.44h.004a328.505 328.505 0 0147.035-1.487c2.787-8.567 5.012-17.803 6.793-27.644a325.68 325.68 0 00-65.508 5.155"
fill="#C60C30" />
<path
d="M117.457 137.463c-.025.038-.049.079-.073.118-.455.735-1.434 1.96-2.458 3.086 4.875-.198 9.766-.29 14.673-.262 4.616-7.205 8.458-15.24 11.649-24.037-19.99-.636-39.737.587-59.135 3.396.012.019.004.016.016.036.707 1.146 1.384 2.122 1.823 2.773.934 1.396.21 2.366.34 3.045.125.628-.25 2.532.268 4.573-.563.748-1.777 1.672-2.39 3.047-1.078 2.415-1.286 4.424-.599 7.474a11.98 11.98 0 00-.08 3.114 311.901 311.901 0 0122.036-2.486c.012-.016.025-.029.039-.043 1.903-2.288 2.156-3.636 2.888-6.796.542-2.913 1.063-2.322 2.383-3.937.964-1.18 1.081-2.289.755-4.196l.162-.012c6.119-.55 7.908-1.563 9.579-1.904 3.508-.721 3.19 1.475 3.23 2.045-.068.973-.754 2.896-2.052 5.295 0 0-.902 2.388-3.054 5.671"
fill="#BBC1DB" />
<path
d="M143.95 94.232c-1.582-3.537-5.47-7.679-8.79-10.56a324.345 324.345 0 00-62.2 7.416 24.225 24.225 0 00-.593 2.7c.1.287.311.754.556 1.218-.106 1.291.47 4.372.937 5.805a2.354 2.354 0 00-.164 1.61c.235.703 1.482 1.768 2.226 2.127 0 0 .248 5.669 4.782 8.247-.25.822-.408 1.456-.502 2.022 20.548-3.167 41.66-4.354 62.773-3.505a183.043 183.043 0 002.869-9.79c-.098-.15-.199-.303-.303-.458-.325-2.552-.742-4.934-1.591-6.832z"
fill="#9F0A2B" />
<path
d="M96.819 62.082c-1.398-.755-3.101-1.48-5.338-1.776-2.41.817-4.816 2.238-6.376 3.165-.876 1.859-2.462 6.257-2.508 7.081.506 0 1.355-.032 2.383-.35-.449.427-.862.929-1.367 1.64-1.818.673-4.353 1.67-6.91 3.056-.69.57-1.44 1.534-1.728 2.572-.142.49-.08 1.01.303 1.309.245.204.63.392.991.483l.068.019c-.276 1.54.251 3.672.855 4.675-.197.297-.416.775-.64 1.351-.589 1.518-1.194 3.746-1.415 5.249.102.287.308.755.557 1.219-.107 1.291.468 4.372.935 5.804a2.346 2.346 0 00-.164 1.613c.233.7 1.482 1.765 2.225 2.123 0 0 .25 5.669 4.783 8.249-.403 1.315-.566 2.155-.612 2.996.023.072.053.151.08.223.407 1.141 1.156 2.48 1.91 3.7.707 1.146 1.422 2.184 1.862 2.837.935 1.395.541 2.537.462 3.224-.082.714-.375 2.351.144 4.393-.561.748-1.776 1.673-2.39 3.047-1.079 2.416-1.285 4.425-.598 7.474-.616 3.977.69 7.834 3.889 9.015 1.752.645 3.142.702 3.844.455 1.873.225 3.435-.522 4.473-1.238 1.558-.996 3.49-1.32 5.519-3.841.79-.982 2.365-1.514 4.269-3.806 1.904-2.288 2.157-3.635 2.89-6.796.541-2.912 1.06-2.32 2.382-3.937.965-1.18 1.08-2.286.753-4.195l.165-.012c6.118-.548 7.909-1.563 9.578-1.905 3.507-.721 3.19 1.476 3.23 2.044-.069.975-.755 2.898-2.051 5.295 0 0-.902 2.391-3.055 5.672-.026.038-.049.08-.074.12-1.01 1.626-4.585 5.664-5.543 5.704-3.716.153-6.528 1.756-8.289 5.442-2.266.672-5.145 3.088-5.605 6.877-.004.03-.29 2.16.983 3.695.363.477 1.122.893 1.57 1.435.58.703 1.542.844 2.12 1.052 1.113.296 2.34.037 3.81-.518 1.812-.74 5.077 1.612 9.444 1.578 4.763-.038 8.586-.128 9.543.827 2.607 2.599 6.216-.074 6.216-.074 1.964-1.466 2.562-3.78 2.763-4.783.88-4.434.225-4.648-.082-7.923-.313-3.277 1.095-5.998 1.658-7.167 2.802-5.83 8.927-10.114 11.984-20.138 2.9-9.51 1.847-18.988-2.634-24.432-.325-2.553-.515-3.005-1.362-4.904-2.025-4.531-7.84-10.055-11.39-12.65-1.606-2.312-4.077-4.652-5.929-5.863a3.806 3.806 0 01-.16-.581l-.644-1.312c-.421-.651-1.026-1.213-1.946-1.985-.649-.491-2.02-1.342-3.06-1.454.376-.535.656-1.465.65-2.074-2.64-2.91-7.028-4.38-9.88-6.943-2.79-.01-6.376.234-9.818.794-1.188.62-2.215 1.303-3.3 2.354-1.088.082-3.227.489-4.423.796"
fill="#06357A" />
<path d="M129.591 74.075l.005.015c.01.013.01.01-.005-.015" fill="#FFF" />
<path
d="M98.297 94.314c.944.092 3.86.48 6.126.882-.747-.52-1.752-2.01-2.221-2.728-.435.539-.775 1.052-1.36 1.57-.296-.646-1.248-1.74-2.284-2.299-.205.627-.59 1.287-.911 1.839-.935-.27-2.199-.92-2.856-1.371a1.507 1.507 0 00-.535.269c.868.433 2.264 1.154 3.425 2.285l.616-.447zm.277-4.345c.712.451 1.808 1.348 2.515 2.278.106-.158.289-.337.38-.604-.5-.415-1.686-1.76-2.137-2.444-.916.142-2.68.458-4.118.885-.396.156-.897.458-1.117.601.52.45 1.74 1.17 3.291 1.533.606-.875.965-1.714 1.186-2.25zm33.544 67.01c-.744-.392-1.663.28-1.588 1.175.036.509-.134 1.401.223 1.695 0 0 .657.44 1.775-.903.512-.614.263-1.61-.41-1.967zm-1.19-5.523c-1.045-.668-2.042-.895-2.672-.838a19.564 19.564 0 00-.008-.388c-.057-2.108-1.889-6.378-6.554-6.338-1.996.016-2.577 1.84-2.772 3.236-.28 1.992-.335 4.295-.258 4.874.089.675-.025 1.714.642 2.265.32.263.818.453.87.058.068-.758.205-1.697.647-2.19.442-.501 1.044-.908 1.69-.908.195 0 .393.025.593.073a3.11 3.11 0 011.987 1.586c.386.767.415 1.782.082 2.555a7.52 7.52 0 01-.523 1.011c.003.109.03.176.083.19.773.112 2.006-.483 2.492-1.247.577-.91.867-2.01.979-3.285.747.888.475 3.015.35 3.725-.09.514-.251 1.497.027 2.087.23.494.76.635 1.01.485-.005-.021-.007-.045-.011-.064a2.223 2.223 0 01.353-1.761c.351-.5.89-.828 1.472-.897a1.94 1.94 0 01.898.103c.641.228 1.033.769 1.269 1.443.111.316.15.642.127.959.197.118.359-.097.482-.513.872-2.924-1.489-5.092-3.254-6.221zm-7.894 1.236c-1.272-.419-2.019.968-1.977 2.144.041.7-.466 2.117.496 2.474 0 0 1.33.277 2.55-2.029.5-.947.064-2.22-1.07-2.59zm26.554-42.79c-.02-1.93.015-2.51-.59-5.086-1.355-5.786-5.502-11.622-9.81-16.095 2.453 1.2 4.145 2.454 6.035 5.241-.378-3.97-4.718-9.968-8.595-12.762 1.002 2.003 1.317 4.07 1.375 5.905.033 1.7-.277 3.797-.562 5.042-.655 2.48-1.343 5.235-3.451 7.255-1.595 1.202-3.322 2.816-4.862 3.812l-2.551 1.96c-1.616 1.356-2.818 2.485-3.373 3.875 1.58-1.347 4.767-4.37 8.092-5.202-.706.632-1.678 1.7-3.784 3.352.831.213 1.478.766 2.08 1.74 1.03 1.67 1.29 4.092.92 6.439 1.737-.874 4.377-5.057 4.794-8.417.211-1.681.419-2.771.419-2.771s.176.687.318 2.568c.283 3.759-1.145 7.906-2.73 10.482-.817 1.329-2.283 1.868-2.922 2.746-.652.9-.44 1.547-.63 3.038-.31 2.398-2.506 4.21-1.286 4.126.817-.06 2.525-.007 3.26.755-1.513-.466-5.172.628-6.998 3.47-.517.802-1.69 2.837-1.69 2.837s-1.403 2.598-4.057 4.967c-1.823 1.627-1.468 1.743-1.1 1.841.06.016.114.03.169.047 2.286-1.109 3.994-2.482 4.88-3.538.516-.61.838-.884.838-.884s-.16.424-.587 1.109c-.832 1.331-1.494 2.55-3.673 4.28 6.183-1.21 10.718 3.348 11.36 7.744 1.34.35 2.608.948 3.32 2.069 1.493-2.953.662-6.46.493-9.174-.141-2.225.479-5.436 2.098-8.75-.415 1.79-.676 3.534-.733 5.035.955-3.058 4.506-6.412 7.029-9.122 2.743-2.76 4.608-7.177 5.224-10.596.781-4.33.904-8.397-1.538-15.246 1.503 1.903 2.36 3.843 2.818 5.908zm-43.577 23.683c.384-2.461 3.152-7.64.001-4.272-1.814 1.942-3.533 2.482-5.616 3.89-2.913 1.966-1.066 4.233-1.564 5.717-.214.64-.057.307-.826 1.302-1.34 1.732-3.557 2.119-2.523 2.752 1.062.641 1.223.017 2.15-.175.597-.124 1.355-.617 1.582-1.262.383-1.089 1.078-2.833 3.168-3.478 2.096-.644 3.247-2.015 3.628-4.474zm-1.43 20.525c-.64.41-.806 1.427-.243 1.995 1.225 1.244 1.843.751 1.843.751.33-.323.09-1.197.083-1.707-.004-.9-.974-1.49-1.682-1.039zm7.92-3.065a1.838 1.838 0 00-1.886 2.073c.364 2.58 1.713 2.775 1.713 2.775 1.02-.01 1.027-1.516 1.306-2.159.438-1.091.203-2.649-1.133-2.689zm.915-8.51s-3.4.077-5.175 3.39c0 0-.176.377-.358.987-.105.02-.21.04-.308.063-3.512.88-5.208 3.92-5.257 5.8-.014.976.08 2.168.665 2.62l.007-.005a2.343 2.343 0 01.025-.982c.164-.696.626-1.287 1.241-1.581.27-.13.56-.197.857-.197.59 0 1.163.264 1.572.725.215.24.371.522.464.824.26-.069.384-.434.258-.926-.355-1.378-.506-2.572.09-4.356-.131 1.592.007 3.746 1.627 5.082 0 0 .527.32.762.143a7.255 7.255 0 01-.304-1.328 2.873 2.873 0 01.686-2.286 2.904 2.904 0 012.19-.996l.092.001c.792.025 1.458.388 1.873 1.024.54.822.607 2.054.173 3.136-.054.126-.104.338-.155.545a.13.13 0 01-.006.02c.54.06 1.15-.02 1.712-.464 0 0 2.345-1.442 1.888-7.914 0 0-.472-4.015-4.619-3.325zm-6.598-21.108a2.3 2.3 0 011.446-.5c.114 0 .225.008.334.023-2.515-1.99-6.523-1.86-7.652-.893a4.602 4.602 0 00-.37-.136c-.795-.253-4.166-.79-6.214.979-2.155 1.865-3.619 4.835-.858 6.97 1.874 1.45 3.667 2.427 5.732.668.14-.118-.614-.689-1.19-1.53-.62-.657-.985-1.482-.97-2.25.014-.759.384-1.421 1.042-1.864a2.893 2.893 0 013.72.4 2.8 2.8 0 01.463.45c1.915 2.323 1.395-.29.81-1.534a4.473 4.473 0 00-1.134-1.516c.645.081 1.449.614 1.894 1.241.467.66.825 1.517 1.437 2.113.684.672.992.5 1.086.068a2.21 2.21 0 01-.281-.74c-.135-.752.128-1.482.705-1.95zm-7.803 2.662c-1.113.745-.48 2.186.474 2.878.576.399 1.382 1.67 2.253 1.131 0 0 1.039-.88-.028-3.26a1.837 1.837 0 00-2.699-.749zm8.976.027c.448.246 1.103.872 1.546.733 0 0 .727-.31.21-1.98-.237-.764-1.21-1.1-1.874-.727-.735.413-.67 1.546.118 1.974zm-17.644 16.846c.134 0 .264.015.394.038.073-.163-.21-.38-.833-.415-1.614-.095-3.03-1.242-3.678-3.1-.819 1.641-.292 5.033.972 6.437.806.898 1.986 1.245 2.133 1.053-.618-.376-1.067-1.025-1.136-1.764a1.984 1.984 0 01.518-1.535 2.21 2.21 0 011.63-.714zm37.436-24.551c.531-.16.999-.317 1.379-.464-.042-3.392-1.327-5.48-3.925-7.218-2.62 2.287-4.434 3.81-6.54 4.954-1.105.597-2.365 1.086-4.01 1.496-.9.233-1.722.41-2.522.531 1.74-.504 3.506-1.673 4.816-2.936.53-.515.988-1.042 1.332-1.547-.536.552-1.21.955-1.984 1.213a6.628 6.628 0 01-1.343.292c.293-.175.568-.36.825-.558 1.253-.967 2.048-2.21 2.322-3.873-1.106 1.85-2.733 2.885-4.078 2.926l-.063.04c-1.164.809-2.834 1.265-4.042 1.31-3.352.128-4.444.27-4.444.27.386.506 1.991 3.408 2.214 4.657 1.756.707 3.294 2.528 4.025 3.522 4.217-.283 8.683-1.46 12.282-2.473-2.176-.33-4.048.565-6.764.201 2.157-.213 4.071-.775 4.943-1.065 1.64-.559 1.764-2.123-.772-4.08 3.05.448 5.223 1.312 6.35 2.802zM80.737 83.928c1.693-.845 3.706-1.33 5.86-1.067l.233.416c-1.048.767-2.85 3.23-3.096 3.84-.503.218-2.167.526-2.57.465-.252-.89-.583-2.767-.427-3.654zm31.451-14.426c3.985.988 6.542 1.971 8.102 2.894 1.501 2.186 2.747 4.423 3.432 6.66-3.014-3.966-6.315-7.242-11.534-9.554zm-9.274-.345a47.51 47.51 0 01-.213.057l.856.437c-4.943.271-8.663 2.59-8.663 2.59 1.641-1.486 3.257-2.48 4.806-3.076 0 0 3.79-.982 7.467-.6-1.79.09-2.698.216-4.253.592zM85.631 94.953s-.363.168-.874.47c-1.553.77-2.547 1.685-3.175 3.044-.037.082-.077.167-.111.251 0 0 2.075 13.191 11.28 9.039 2.143-.523 5.986-.172 8.316-1.672-.334.974-.897 1.035-1.516 1.526 1.502.317 1.995.875 3.124.078 1.308-.92 1.058-.554 2.396.129 1.337.68 3.741 1.959 5.788 1.792 1.042-.208 1.846-.804 2.445-1.383-.689-.13-1.63-.579-2.142-.982-1.14-.87-.91-2.136-1.732-3.84l-.785-.888c-1.833 1.434-3.344 2.083-5.721 2.766.902-1.19 1.692-1.74 2.86-2.487.664-.426 1.575-1.267 2.355-2.022l-.713-2.461c-.44-.342-.868-.715-1.232-1.102-2.757-.988-5.285-1.43-8.01-1.872l-1.09 1.075c-.908-1.226-2.74-2.8-4.76-3.865-.77-.257-1.727-.602-2.596-.733-.124-.975-.742-2.87-1.385-4.05-.347.69-1.149 2.173-1.55 3.88-1.27.067-2.84.29-4.311.723-.486.117-.889.245-1.133.376-.135-.4-.908-1.478-1.633-2.334a23.306 23.306 0 00-.617-.797l2.94 1.265a22.341 22.341 0 013.153-.78c.412-.062.826-.117 1.224-.165.588-1.324 2.13-3.5 2.13-3.5 1.31.994 2.252 2.414 2.987 4.483.848-.936 2.05-1.827 3.21-2.313 2.071-.906 5.967-1.767 7.655-1.237.468 2.538 2.49 5.114 3.622 7.439.631.998 1.205 2.853 1.205 2.853l-.537-7.12 2.554 8.926s3.568 5.998 6.289 6.627c.81-.23 1.556-.498 2.06-.766 1.051-.646 2.546-2.27 3.43-3.939.118-.3.282-1.058.405-1.885.093-.53.16-1.345.164-1.823.535 1.188.808 2.264 1.073 3.93-.25 1.427-.882 3.165-1.642 4.791 1.436-.719 2.784-4.414 3.412-5.631.703-1.294 2.07-3.86 2.738-6.526.014-.311-.042-.7-.157-1.131-.621-2.126-1.64-4.943-2.323-6.868.714 1.01 1.307 1.9 1.844 2.821.74 1.273 1.368 2.594 2.037 4.36.033 2.304-.017 4.843-.48 7.344.068-.065 3.618-2.905 6.218-7.147 1.466-2.392 3.209-5.87 2.027-10.887-.559-2.358-4.087-6.211-6.051-7.513a7.735 7.735 0 00-.302-.187l-.398-.945c-.104-.136-1.615-2.325-3.13-3.396-.752-.53-2.969-1.663-4.315-1.891l-1.26.065c-1.065-.004-2.767.089-4.394.271-4.167-2.358-7.644-3.617-10.845-4.358-.45.24-.812.4-1.168.561.21-.86.532-1.588 1.21-2.167 0 0 4.61 1.653 7.408 3.168 1.047.087 5.25.1 7.2-.378.279-.239.39-.725.411-1.129-.47-.772-2.236-1.543-4.955-3.097-1.453-.868-2.866-1.998-2.866-1.998s-1.07-.1-2.122-.07c-.795.022-5.278.388-6.129.71-.176.066-.777.304-.853.324-.962.335-1.923.963-3.034 1.97a8.31 8.31 0 01-1.724.778c-2.149.709-5.333 1.524-6.267 1.912-1.446.602-3.982 2.098-3.982 2.098l-3.015 3.816c-.628.788-1.18 1.55-1.5 2.139-2.059.67-4.864 1.914-6.189 2.805-.327.233-.792.88-.583 1.132.23.226.522.404.786.481.531.062.965.077 1.3.048a3.09 3.09 0 00.296-.032c.286.464.677 1.134 1.41 1.347 0 0 .657.032 1.412-.014.279-.014.57-.038.856-.076.657-.338 1.662-1.393 1.946-1.744.396-.493.907-1.3 1.626-2.357.821-1.03 2.468-2.394 4.03-3.528a30.72 30.72 0 014.745-2.183c-1.262.564-5.033 3.8-6.19 5.311-.664.945-.749 1.773-.881 2.444.03.203.356.775 1.033 1.348 1.06-.038 3.739-.88 4.764-1.04 1.977-.684 3.367-2.53 4.316-3.79 1.242-.035 5.614-.129 7.67-.61.73.328 2.473 1.64 3.933 3.272-.897-.614-2.278-1.187-3.5-1.477-.49.08-2.042.195-2.663.355.127 1.672-.538 2.648-1.384 3.622.885-.079 2.421.049 4.233.015 2.943.647 5.22 3.312 5.22 3.312-2.23-2.01-5.946-2.133-5.946-2.133-2.631-.254-6.798.097-9.687.494.667.656 1.763 2.533 2.608 4.126-1.964-2.127-3.246-2.695-5.403-3.638-2.126-.74-4.692-.812-5.787-.79-1.062.03-2.362.244-2.362.244-5.044 1.45-8.08 4.528-8.863 7.278.052.695.547 1.348 1.096 1.839.031 1.099.44 3.384.99 4.646 0 0-.133.112-.298.302-.198.184-.402.37-.5.554-.203.315-.217.902-.096 1.316.035.12.131.383.26.514 0 0 .547.66 1.715.256 0 0 1.556-.879 3.155-1.508.61-.208 1.46-.473 2.297-.606zm-7.646-15.398c-.25 1.12.34 2.355.996 2.864.581-.428 1.47-.934 2.165-1.278-.15-.072-.367-.256-.592-.478-.085.46-.359.814-.727.875-.515.085-1.021-.438-1.131-1.168a1.735 1.735 0 01.05-.746 4.953 4.953 0 01-.761-.069zm21.205-.699c-.563.032-1.074-.35-1.351-.931-.657.584-1.346 1.131-1.897 1.43.9-.063 2.893-.08 3.868-.167 1.967-.233 2.518-1.341 2.54-1.77.023-.43.05-1.16-.493-1.928-.73.096-1 .087-1.806.157a1.27 1.27 0 01-.053.074c.275.31.465.748.5 1.241.068.996-.517 1.845-1.308 1.894zm-3.832 55.936c1.21-3.466.523-4.104-2.207-6.072-2.42-1.749-4.854-.351-6.257 2.31-1.068 2.029-.82 4.013.088 5.809.489.963 1.624 2.017 2.981 2.233 1.301.207 3.24.217 1.5-.913-.346-.145-.7-.33-1.06-.556a2.867 2.867 0 01-1.318-2.038c-.122-.847.137-1.701.71-2.343.465-.52 1.056-.796 1.711-.796 1.084 0 2.036.747 2.591 1.573.107.127.208.265.306.413.686.991.955.38.955.38zM86.37 66.034c-1.061 1.107-1.444 1.719-1.846 2.725 1.694-.59 2.786-1.253 3.462-1.73-.482-.393-1.069-.84-1.616-.995zm4.796 78.613c1.669-.523 1.511-1.298 1.511-1.298-.138-.441-1.026-.625-1.48-.853-.803-.407-1.771.185-1.695 1.024.073.757.904 1.368 1.664 1.127zm3.331-7.164c.65-.79-.5-1.762-.816-2.386-.555-1.04-1.895-1.86-2.788-.862a1.84 1.84 0 00.378 2.777c2.212 1.38 3.226.47 3.226.47zm4.888-22.965c.438.036 2.76.276 4.137.637-.55-1.037-1.32-2.386-4.895-3.3-.801-.157-1.264-.023-1.968-.204-2.632-.677-4.335-.24-4.335-.24-3.146.633-5.545-.464-7.404-1.131.137.706.288 1.579.631 2.28 1.917 2.128 3.07 3.973 3.708 4.4 1.251.87 2.009 2.476 2.13 3.018-.844-.9-1.548-1.264-2.692-1.788.073 1.495.15 2.322.425 3.338.19.947-.601 2.766-.739 4.24.771-.664 1.41-.8 1.566-1.576.412-2.605 1.642-4.36 4.888-5.6 2.083-.798 4.415-.794 5.615-.388.445.273 2.126-.552 3.7-.168 0 0-1.038-1.416-3.722-2.267-1.533-.488-4.432-.9-6.38-.853 1.483-.45 3.91-.513 5.335-.398zm-10.248-48.32c.788-.526 3.711-2.292 5.66-3.12-.68-.397-3.125-.9-4.652-.995-.976.272-2.65 1.05-3.802 1.813.792.45 2.419 1.72 2.794 2.302zM94.038 28.148c-1.03-.303-1.962-.237-1.962-.947 0-.525.492-.762 1.167-.762.778 0 1.59.305 2.266.694l.441-2.792c-.71-.405-1.76-.862-3.13-.862-2.064 0-4.415 1.032-4.415 3.857 0 2.048 1.217 3.147 2.454 3.57 1.098.372 2.232.254 2.232.965 0 .473-.474.812-1.219.828-.93.017-1.928-.457-2.773-1.032l-.796 2.843c1.05.626 2.368 1.168 3.84 1.168 2.317 0 4.62-1.32 4.62-4.045 0-2.183-1.474-3.112-2.725-3.485zm9.092 23.66a2.738 2.738 0 01-.915.051v-9.32c.261-.027.522-.053.81-.027 1.415.158 3.013 1.282 3.013 4.635 0 3.141-1.492 4.398-2.908 4.66zm-1.124-13.879c-2.07-.025-3.877.027-5.368.08v18.328a49.54 49.54 0 003.402.13c7.96 0 11.574-3.168 11.574-9.242 0-6.23-3.482-9.216-9.608-9.296zm-12.595.08h-5.577v18.328h11.443v-4.581h-5.866V38.009zm-12.804 0h-5.576v18.328h11.443v-4.581h-5.867V38.009zm64.096 11.783h2.802v1.884a3.657 3.657 0 01-2.069.628c-2.2 0-4.084-1.858-4.084-5.026 0-3.064 1.834-5.21 4.216-5.264 1.283-.025 2.304.551 3.01 1.31l1.65-4.373c-1.283-.733-3.038-1.414-5.08-1.414-5.105 0-9.374 4.137-9.374 9.819 0 5.656 4.06 9.531 9.453 9.531 3.037 0 5.133-1.205 6.702-2.331v-8.9l-7.226-.029v4.165zm17.674-4.819c-1.598-.471-3.039-.365-3.039-1.465 0-.812.76-1.179 1.807-1.179 1.205 0 2.462.47 3.51 1.073l.68-4.32c-1.1-.628-2.722-1.335-4.843-1.335-3.195 0-6.836 1.597-6.836 5.97 0 3.167 1.886 4.87 3.798 5.525 1.703.575 3.457.392 3.457 1.491 0 .733-.733 1.257-1.886 1.284-1.439.026-2.985-.707-4.293-1.598l-1.232 4.4c1.625.969 3.666 1.806 5.944 1.806 3.587 0 7.149-2.043 7.149-6.257 0-3.378-2.278-4.819-4.216-5.395zm-21.03-9.483V23.649h-3.602v6.174l-3.3-6.174h-3.332v11.84h3.603v-6.003l3.316 6.004h3.316zm-61.884 0l3.162-11.841h-3.418l-1.64 7.274-1.895-7.274h-2.657l-1.877 7.257-1.658-7.257h-3.502l3.401 11.84h3.196l1.778-7.206 1.81 7.207h3.3zm46.232 16.892c-1.937 0-3.221-2.067-3.221-5.051 0-3.065 1.284-5.055 3.247-5.055 1.963 0 3.22 2.016 3.22 5.055 0 2.957-1.309 5.051-3.246 5.051zm0-14.74c-4.819 0-8.824 3.77-8.824 9.714 0 5.918 3.98 9.687 8.877 9.687 5.026 0 8.77-3.978 8.77-9.739 0-5.996-4.11-9.662-8.823-9.662zm-5.9-5.111h-4.568v-1.676h3.232v-2.622h-3.232v-1.624h4.28v-2.96h-7.882v11.84h8.17v-2.958zm-15.65 2.959h3.587v-8.864h3.095V23.65h-9.76v2.977h3.078v8.864zm-12.773-2.96h-4.566v-1.675h3.23v-2.622h-3.23v-1.624h4.278v-2.96h-7.883v11.84h8.17v-2.958zm33.194-6.006a1.88 1.88 0 01.608.035c.474.1 1.033.474 1.033 1.506 0 .811-.408 1.369-.965 1.539a1.851 1.851 0 01-.676.05v-3.13zm0 6.091c.338.05.643.034.88.016l.845 2.859h3.858l-1.523-4.263c.744-.744 1.201-1.81 1.201-3.162 0-2.692-1.845-4.4-5.108-4.484-.998-.034-2.69 0-3.755.068v11.84h3.602v-2.874zm-57.103 16.81c0 1.544-.89 2.46-2.093 2.46-1.205 0-2.095-.89-2.095-2.434V38.01h-5.578v11.258c0 5.5 4.165 7.62 7.777 7.62 4.005 0 7.566-2.592 7.566-7.776V38.009h-5.577v11.416zm-18.85 2.592c-.42.026-.812 0-1.047-.027v-3.273c.235-.051.575-.078.94-.051.995.078 1.756.628 1.756 1.702 0 1.152-.76 1.57-1.65 1.649zm-1.047-9.61a2.93 2.93 0 01.967-.026c.63.08 1.52.315 1.52 1.388 0 .89-.681 1.257-1.572 1.415a2.8 2.8 0 01-.915-.027v-2.75zm5.366 4.085c1.597-.707 2.436-2.094 2.436-3.796 0-2.095-1.284-4.818-7.698-4.818-1.44 0-3.22.026-5.63.13v18.33c1.807.104 3.273.182 5.419.182 5.473 0 8.746-1.833 8.746-5.55 0-2.54-1.545-4.006-3.273-4.478z"
fill="#FFF" />
</g>
</svg>