<svg xmlns="http://www.w3.org/2000/svg" xmlns:xlink="http://www.w3.org/1999/xlink" viewBox="0 0 200 200">
<path
d="M101.053 151.221c25.104.714 54.333-9.886 64.795-19.574l-8.137-14.628s-22.34 18.29-56.658 16.958v-6.934c7.856.08 23.796-.289 36.491-3.99v-12.069s-20.137 4.634-36.49 3.146v-2.904h9.764V96.452h-9.765V92.31c6.647-.679 16.973-.257 32.744 3.322l.099-12.264s-19.383-3.943-32.843-3.1v-6.76c5.656-.302 13.912-.44 23.226.352v5.357h12.464l-.005-3.761c4.786.836 9.665 1.964 14.465 3.472l4.438-20.567s-7.536-1.927-18.927-3.148l-.009-6.701V32h-14.941v5.36H98.538V32H88.442l.036 5.36V57.614C66.426 62.994 45.008 75.928 35 104.128c0 0 11.941 37.194 53.478 45.652v5.619H77.384V168h37.427v-12.601h-13.758v-4.178zm-12.575-40.139c-3.18-1.532-5.64-3.69-6.952-6.664 0 0 1.76-4.326 6.952-7.575v14.24zm12.575-62.714h23.226v5.961c-7.183-.248-15.106-.052-23.226.982v-6.943zm-42.308 55.905s.938-17.792 29.733-28.508v7.043c-6.292 2.26-16.271 7.848-21.672 21.32 0 0 4.423 14.257 21.672 20.666v7.188c-9.256-2.784-24.108-9.924-29.733-27.709z"
fill="#031E2F" fill-rule="nonzero" />
</svg>