<svg xmlns="http://www.w3.org/2000/svg" xmlns:xlink="http://www.w3.org/1999/xlink" viewBox="0 0 200 200">
<defs>
<path id="csa" d="M.145.3h17.91v16.014H.145z" />
<path id="csc" d="M.084.221h19.258v14.96H.084z" />
</defs>
<g fill="none" fill-rule="evenodd">
<path
d="M84.79 41.903V33.58c-.312-.27-.821-.651-1.147-.806v-.057h5.74c3.055 0 5.162 1.496 5.162 4.424 0 2.992-1.938 4.762-5.14 4.762H84.79zm14.264-4.846c0-4.677-3.519-7.227-9.018-7.227h-9.503v14.96h9.419c5.372 0 9.102-3.076 9.102-7.733zM139.989 41.798H128.99v-2.34c-.312-.268-.821-.65-1.147-.806v-.057h11.64v-2.781H128.99v-2.127c-.312-.27-.822-.652-1.148-.808v-.057h12V29.83h-15.108v14.96h15.255v-2.992zM106.416 36.594v-2.086h.084c.232.484.8 1.243 1.201 1.706l8.07 8.576h4.235V29.83h-3.856v10.177h-.084c-.274-.59-.696-1.095-1.18-1.686l-7.775-8.491h-4.551v14.96h3.856v-8.196z"
fill="#FEFEFE" />
<g transform="translate(39.819 29.002)">
<mask id="csb" fill="#fff">
<use xlink:href="#csa" />
</mask>
<path
d="M9.775 13.301c-3.056 0-5.352-1.2-6.595-2.95L.145 12.48c1.539 2.36 4.994 3.835 9.419 3.835 5.415 0 8.491-1.854 8.491-5.183 0-2.76-1.706-3.982-5.836-4.404L8.11 6.306c-1.917-.19-2.528-.548-2.528-1.454 0-1.032 1.243-1.58 3.56-1.58 2.866 0 5.015.885 6.111 2.38l2.697-2.254C16.075 1.291 13.125.301 9.353.301c-5.12 0-8.027 1.77-8.027 4.74 0 2.76 1.79 4.11 5.436 4.51l4.593.505c1.77.19 2.402.57 2.402 1.496 0 1.18-1.264 1.75-3.982 1.75"
fill="#FEFEFE" mask="url(#csb)" />
</g>
<path
d="M70.51 44.79v-5.1l7.523-9.86H73.44l-4.467 6.068c-.338.443-.422.632-.485.843h-.042c-.063-.21-.169-.4-.506-.843l-4.32-6.068h-4.845l7.48 9.86v5.1h4.256z"
fill="#FEFEFE" />
<g transform="translate(141.983 29.609)">
<mask id="csd" fill="#fff">
<use xlink:href="#csc" />
</mask>
<path
d="M11.82 15.181v-5.099l7.522-9.86H14.75L10.282 6.29c-.337.442-.421.632-.484.842h-.043c-.063-.21-.168-.4-.505-.842L4.93.22H.084l7.48 9.861v5.1h4.256z"
fill="#FEFEFE" mask="url(#csd)" />
</g>
<path
d="M99.44 172.7l-25.527-51.068-.255.234a152.78 152.78 0 01-2.7 2.424 149.39 149.39 0 01-6.671 5.533 10.535 10.535 0 00-1.844 1.82s-1.592 1.999-1.661 4.301a13.728 13.728 0 01-1.892-.408 5.75 5.75 0 01-.629-.283l-.03-.016a6.162 6.162 0 01-1.393-.992 5.756 5.756 0 01-1.068-1.377l-.045-.081-.029-.056a6.574 6.574 0 01-.378-.898l-.027-.081-.002-.004-.026-.086c-.383-1.25-.437-2.67-.165-4.344.336-2.068 1.849-4.675 3.6-7.694 2.37-4.083 5.054-8.71 5.755-13.382l.17-1.124-1.113-.236c-1.134-.239-2.11-.995-2.749-2.127l-.011-.021-.158-.311c-.973-1.975-.957-4.617.013-7.362L38 49.781l47.24.02 4.515 8.98c4.09-1.632 8.246-2.462 12.354-2.462 1.234 0 2.458.079 3.64.233l.229.03.009-.002c.597.074 2.382.325 4.009.81l3.678-7.605 47.207.004-61.44 122.91z"
fill="#FEFEFE" />
<path
d="M157.225 52.05l-42.126-.003-3.08 6.432.175.022c1.643.222 14.706 2.314 23.661 13.705 2.35 2.989 4.359 6.445 5.861 10.848l15.509-31.004zM132.137 86.483c-.41-4.258-5.156-10.23-8.657-12.115 1.681-.51 3.725-.359 4.49-.402-6.556-7.348-14.933-7.505-20.275-6.677-3.14.486-5.215 1.341-5.215 1.341v.006a38.752 38.752 0 014.858-.633c2.976-.188 5.548.034 7.731.469a24.51 24.51 0 013.133.838c4.274 1.458 6.324 3.556 6.324 3.556s-2.759.08-4.59 1.173c3.984 2.13 8.486 5.64 10.084 10.336l-.05-.013c-.458-.118-3.04-1.007-6.781.035 2.04 2.255 7.388 6.86 7.303 16.527l.006-.022s2.45-8.495-3.856-15.442c0 0 2.259-.408 5.495 1.023"
fill="#E1251B" />
<path
d="M79.834 85.545a1.158 1.158 0 01-1.146-1.015c-.006-.048-.015-.096-.015-.146v-.003a1.16 1.16 0 111.161 1.164zM65.241 95.589c-.213.674-.641 1.18-1.101 1.385-.232.104-.47.137-.696.066-.673-.213-.96-1.206-.64-2.22a2.82 2.82 0 01.114-.289c.37-.842 1.078-1.351 1.683-1.16.673.212.96 1.205.64 2.218zm50.594 39.244c8.49-16.986 7.858-26.236 5.817-32.513-2.01-7.34-6.197-9.855-9.19-10.567-.135-.03-.57-.12-1.148-.154-.665-.04-1.516-.007-2.307.275-.349.125-.687.298-.991.535-.69.533-1.23 1.207-1.596 1.743a12.777 12.777 0 01-.483.603c-2.628 3.1-6.602 5.083-6.602 5.083-3.61 1.964-7.405 1.754-9.828 1.287-.82-.196-2.827-.806-4.851-2.413a9.776 9.776 0 01-.729-.667 9.446 9.446 0 01-.4-.439c-.064-.075-.131-.15-.194-.226-2.11-2.6-2.45-5.887-2.225-8.614l.001-.009c.007-.074.062-.536.364-.902a1.82 1.82 0 01.17-.168c.01-.01.021-.019.032-.027l.031-.025c.525-.381.781-.295 1.442-.612l.01-.006a3.981 3.981 0 001.919-1.875c.047-.096.094-.192.134-.292a4.218 4.218 0 00.312-1.603v-.033c-.017-1.267-.63-2.425-1.68-3.008.881-1.551 2.097-3.308 3.662-4.724.12-.109.243-.217.368-.322l.045-.036.019-.014.068-.059c1.71-1.483 3.724-2.571 4.622-3.033.136-.079.274-.158.417-.236h-.005c-.134.016-.314.026-.448.041-1.9.256-10.117 1.738-14.145 8.587l-.117.21-.006.008c-.007.01-.013.016-.02.028-.104.168-.247.42-.409.714-.186.339-.399.738-.62 1.16a156.908 156.908 0 00-1.094 2.114v.001c-.306.597-1.147 1.948-1.147 1.948h.001c-1.313 1.812-3.01 3.505-4.964 3.963-.339.08-.684.125-1.038.124-.76-.001-1.369-.116-1.858-.308a3.935 3.935 0 01-.164-.085c-2.506-1.41-1.324-4.939-.783-6.23l.009-.021.01-.025c3.725-8.095 12.782-16.794 22.683-21.745 4.187-2.094 8.522-3.52 12.668-3.941 1.283-.13 2.656-.284 4.143-.288h-.001.015c.398-.001.802.004 1.211.014l.087.001c.245.007.493.016.742.026.143.006.288.009.43.015-3.97-1.015-11.388-1.537-20.106 2.545l-.012.005-.072-.144-4.194-8.437-42.18-.017L62.406 93.55c-1.772 3.403-1.798 6.516-.861 8.417l.136.27c.338.599 1.355 2.01 3.262 1.593a3.373 3.373 0 00.73-.25c.594-.291.954-.724 1.172-1.15.254-.499.316-.983.33-1.224.447 1.222.795 2.584 1.042 3.969.348 1.952.492 3.944.387 5.632 0 0 1.89-3.15 2.324-6.823l.005-.036c.43-3.176.102-6.175 0-7.404a5.922 5.922 0 01-.017-.635v-.093l-.002-.025a4.01 4.01 0 01.085-.901h-.001s.033-.24.143-.54c.125-.343.349-.763.74-1.006.006-.005.013-.008.02-.012l.001-.001s1.138-.61 1.7-.23a1.72 1.72 0 01.433.372l.05.059c.048.059.097.124.146.196l.005.008c.2.262.417.602.655 1.045 1.14 2.128 3.306 3.94 3.606 4.185a28.344 28.344 0 006.535 3.715c-1.994 4.134-6.267 8.945-10.829 13.433l-.348.34-.061.061-.017.017c-4.196 4.094-8.57 7.91-11.75 10.373a15.396 15.396 0 00-1.953 1.787l-.007.008a4.064 4.064 0 01-.324-.833c-.26-.887-.236-1.794-.02-2.75.074-.357.148-.576.148-.576h.001c1.265-4.304 5.856-9.67 5.673-18.485-1.108 8.504-8.668 16.892-9.405 21.431-.25 1.544-.19 2.816.133 3.87l.014.041c.092.295.206.572.34.832l.03.062.036.063c.252.453.555.824.872 1.125.392.373.805.64 1.17.83l.018.009c.194.102.379.18.54.241l.003.001a4.568 4.568 0 00.44.14l.021.006.03.007h.003l.048.012c.003-.075.249-1.788 1.774-3.734a11.518 11.518 0 012.028-2.003c.69-.535 3.313-2.591 6.622-5.492a144.483 144.483 0 004.871-4.466l24.307 48.6 16.395-32.798z"
fill="#E1251B" />
<path
d="M106.004 129.817v2.237h-1.233c.109-.162.184-.335.292-.605l.66-1.654c.14-.346.227-.605.292-.908h.021c-.021.281-.032.627-.032.93zm1.405-2.498h-1.719l-2.054 4.79v1.08h2.357v1.644h1.416v-1.644h.768v-1.135h-.768v-4.735zM97.657 133.092c0 .54-.216.81-.648.81-.444 0-.681-.27-.681-.82v-.736c0-.464.13-.724.486-.908l.13.054c.53.205.713.39.713.898v.702zm-1.286-4.162c0-.53.205-.767.605-.767s.606.249.606.778v.627c0 .41-.12.66-.411.832l-.119-.043c-.454-.173-.68-.39-.68-.832v-.595zm1.762 1.87c.594-.313.854-.735.854-1.372v-.465c0-1.135-.767-1.806-2.011-1.806-1.221 0-2.021.714-2.021 1.838v.422c0 .821.313 1.308.919 1.632-.66.26-1.016.767-1.016 1.438v.53c0 1.253.789 1.978 2.14 1.978 1.308 0 2.13-.768 2.13-1.99v-.497c0-.886-.314-1.372-.995-1.708zM103.733 127.32H99.82v1.221h2.497c-1.016 1.665-1.632 3.654-1.643 5.891v.4h1.502v-.907c.011-2.065.487-4.033 1.557-5.611v-.995zM91.127 128.346h-.118v1.395h.162c.389 0 .789-.087 1.016-.292v5.383h1.448v-7.513h-1.167c-.194.67-.703 1.027-1.34 1.027"
fill="#FEFEFE" />
</g>
</svg>